<svg version="1.2" xmlns="http://www.w3.org/2000/svg" viewBox="0 0 120 23" width="120" height="23">
	<title>Net Affinity Brandmark_Black_AW-svg</title>
	<style>
		.s0 { fill: #231f20 } 
	</style>
	<g id="Layer_1">
		<g id="Layer">
			<g id="Layer">
				<path id="Layer" class="s0" d="m57 15.5l1.3 0.8-0.4 0.6c-0.1 0-1.2 1.4-3 1.4-2.2 0-3.7-1.6-3.7-3.9v-5.6h-2.2v-1.6h2.2v-2.9h1.8v2.9h3.2v1.6h-3.2v5.6c0 1.3 0.8 2.3 1.9 2.3 1 0 1.7-0.8 1.7-0.8z"/>
				<path id="Layer" class="s0" d="m86.1 5.5c-0.7 0-1.2-0.5-1.2-1.1 0-0.6 0.5-1.2 1.2-1.2 0.6 0 1.1 0.6 1.1 1.2 0 0.6-0.5 1.1-1.1 1.1z"/>
			</g>
			<path id="Layer" class="s0" d="m85.2 7.2h1.8v10.9h-1.8z"/>
			<g id="Layer">
				<path id="Layer" class="s0" d="m119.8 7.2v10.1c0 3-2.1 5-5.2 5-2.8 0-4.2-2-4.2-2.1l-0.3-0.5 1.3-0.9 0.3 0.5c0 0 1 1.4 2.9 1.4 2 0 3.4-1.4 3.4-3.4v-0.3c-0.7 0.6-1.8 1.2-3.2 1.2-2.8 0-4.6-1.8-4.6-4.4v-6.6h1.8v6.6c0 1.6 1.2 2.7 2.8 2.7 1.6 0 2.9-1.4 3.2-1.8v-7.5z"/>
				<path id="Layer" class="s0" d="m80.6 7.4h3.3v1.6h-3.3v9.1h-1.8v-9.1h-3.6v9.1h-1.8v-9.1h-2.1v-1.6h2.1v-0.3c0-2.3 1.5-4 3.7-4q0.3 0 0.6 0.1h0.5v1.7l-0.7-0.1q-0.2-0.1-0.4-0.1c-1.1 0-1.9 1-1.9 2.4v0.3h3.6v-0.3c0-2.3 1.5-4 3.7-4q0.3 0 0.6 0l0.5 0.1v1.7l-0.7-0.1q-0.2-0.1-0.4-0.1c-1.1 0-1.9 1-1.9 2.4z"/>
				<path id="Layer" class="s0" d="m36.3 8.1c0.9 0.8 1.3 1.9 1.3 3.2v6.8h-1.8v-6.8q0-0.7-0.3-1.3c-0.5-0.9-1.4-1.4-2.4-1.4h-0.1c-1.2 0-2.4 0.6-2.9 1.4q-0.3 0.6-0.3 1.3v6.8h-1.8v-6.8c0-1.3 0.5-2.4 1.3-3.2 0.8-0.7 2.2-1.2 3.7-1.2h0.1c1.3 0 2.4 0.4 3.2 1.2z"/>
				<path id="Layer" class="s0" d="m96.8 8.1c0.9 0.8 1.3 1.9 1.3 3.2v6.8h-1.8v-6.8q0-0.7-0.3-1.3c-0.5-0.9-1.4-1.4-2.4-1.4h-0.1c-1.2 0-2.4 0.6-2.9 1.4q-0.3 0.6-0.3 1.3v6.8h-1.8v-6.8c0-1.3 0.5-2.4 1.3-3.2 0.8-0.7 2.2-1.2 3.7-1.2h0.1c1.3 0 2.4 0.4 3.2 1.2z"/>
				<path id="Layer" class="s0" d="m24.6 9.3c-1.3 4.2-6.5 8.1-9.9 11.4l-0.6-0.5c-2.3-2.1-4.8-4.3-6.1-5.9-3.9-4.8 1.1-9.4 5.5-6.9 1.4 0.8 2.5 1.9 3.7 3q0.3 0.2 0.5 0.5-0.5 0.6-1.1 1.2c-0.3 0.3-0.8 0.3-1.1 0q-0.2-0.2-0.5-0.4c-0.8-0.8-1.7-1.6-2.7-2.2-1.2-0.7-2.3-0.4-2.9 0.2-0.6 0.8-0.4 1.9 0.5 3.1 1.1 1.2 2.7 2.7 4.7 4.6 2.7-2.5 6.8-6 7.7-8.8 0.8-3-0.5-4.9-2.1-5.7-0.6-0.3-1.4-0.5-2.2-0.4q0 0 0 0-0.1 0-0.2 0.1c-0.8 0.2-1.1 0.7-1.1 0.7 0 0-1.9-1.5-1.9-1.6q0.3-0.3 0.6-0.6c1.7-1.4 4.1-1.3 6-0.3 2.3 1.2 4.5 4.1 3.2 8.5z"/>
				<path id="Layer" class="s0" d="m12.6 20.7q0.5 0.5 1 0.9-0.6 0.6-1.2 1.2c-0.3 0.3-0.8 0.3-1.1 0q-0.6-0.5-1.1-1c-1.8-1.6-3.5-3.3-5.1-5-1.4-1.6-2.8-3.2-3.9-5-4.1-7.3 3.7-14.5 10.5-10.6q1.3 0.8 2.5 1.8c1.6 1.3 3.1 2.6 4.6 4 0.4 0.4 1.1 0.9 0.7 1.6-0.3 0.5-0.6 1-1 1.5-1.8-1.7-3.7-3.5-5.6-5-1-0.8-1.9-1.6-3.1-2.1-1.9-0.9-4.4-0.4-6 1.2-1.6 1.7-1.7 4.3-0.3 6.7 0.9 1.4 2 2.7 3.1 3.9 1.9 2 3.9 4 6 5.9z"/>
				<path id="Layer" class="s0" d="m41.8 11.8h5.6q0 0 0 0 0-0.4-0.1-0.7c-0.5-1.5-1.8-2.5-3.2-2.5-1.2 0-2.3 0.7-3 1.8q-0.1 0.3-0.2 0.7-0.2 0.4-0.2 0.9-0.1 0.3-0.1 0.6 0 0.3 0.1 0.7 0 0.5 0.2 0.9 0.1 0.3 0.2 0.6c0.7 1.2 1.9 1.9 3.1 1.9q0.7 0 1.3-0.2c1.3-0.5 2-1.5 2-1.5l0.3-0.5 1.3 0.8-0.3 0.5c0 0.1-1.5 2.5-4.5 2.5-1.3 0-2.4-0.3-3.4-1.1-1.3-1-2.1-2.7-2.1-4.6 0-1.8 0.8-3.5 2.1-4.6 0.9-0.7 2-1.1 3.2-1.1 2.2 0 4.2 1.6 4.9 3.8q0.1 0.1 0.1 0.1 0.1 0.6 0.2 1.2 0 0 0 0.1c0.1 0.8 0 1.4 0 1.4h-0.3-7.2z"/>
				<path id="Layer" class="s0" d="m71 11.3v6.8h-1.8v-0.9c-0.8 0.6-1.9 1.2-3.2 1.2-2.8 0-4.5-1.5-4.5-3.8 0-2.3 1.7-3.8 4.5-3.8 0.6 0 1.6 0.2 2.2 0.4l-0.4 1.6c-0.5-0.2-1.4-0.4-1.8-0.4-1.7 0-2.7 0.9-2.7 2.2 0 1.3 1 2.2 2.7 2.2 1.6 0 2.8-1.4 3.2-1.8v-3.7c-0.1-1.7-1.2-2.7-2.9-2.7-1.5 0-2.5 1.2-2.6 1.2l-0.3 0.5-1.3-0.9 0.4-0.5c0-0.1 1.4-1.9 3.8-1.9 1.4 0 2.6 0.4 3.4 1.2 0.8 0.7 1.2 1.8 1.3 3.1z"/>
				<path id="Layer" class="s0" d="m100.4 5.5c-0.6 0-1.1-0.5-1.1-1.1 0-0.6 0.5-1.2 1.1-1.2 0.6 0 1.2 0.6 1.2 1.2 0 0.6-0.6 1.1-1.2 1.1z"/>
			</g>
			<path id="Layer" class="s0" d="m99.5 7.2h1.8v10.9h-1.8z"/>
			<g id="Layer">
				<path id="Layer" class="s0" d="m109.7 15.9q0.3 0.8 0.9 1.4c-0.5 0.4-1.4 1-2.6 1-2.2 0-3.7-1.6-3.7-3.9v-5.6h-2.1v-1.6h2.1v-2.9h1.8v2.9h3.2v1.6h-3.2v5.6c0 1.3 0.8 2.3 1.9 2.3 1 0 1.7-0.8 1.7-0.8z"/>
			</g>
		</g>
	</g>
	<g id="Layer_2">
	</g>
</svg>